<svg width="80" height="80" viewBox="0 0 80 80" fill="none" xmlns="http://www.w3.org/2000/svg">
<path fill-rule="evenodd" clip-rule="evenodd" d="M40 25C31.7157 25 25 31.7157 25 40C25 48.2843 31.7157 55 40 55C48.2843 55 55 48.2843 55 40C55 31.7157 48.2843 25 40 25ZM20 40C20 28.9543 28.9543 20 40 20C51.0457 20 60 28.9543 60 40C60 51.0457 51.0457 60 40 60C28.9543 60 20 51.0457 20 40Z" fill="black"/>
<path fill-rule="evenodd" clip-rule="evenodd" d="M33.75 10C32.1762 10 30.6943 10.741 29.75 12L26.75 16C24.8615 18.5181 21.8976 20 18.75 20H12.5C8.35786 20 5 23.3579 5 27.5V57.5C5 61.6421 8.35786 65 12.5 65H67.5C71.6421 65 75 61.6421 75 57.5V27.5C75 23.3579 71.6421 20 67.5 20H61.25C58.1024 20 55.1385 18.5181 53.25 16L50.25 12C49.3057 10.741 47.8238 10 46.25 10H33.75ZM25.75 9C27.6385 6.48194 30.6024 5 33.75 5H46.25C49.3976 5 52.3615 6.48194 54.25 9L57.25 13C58.1943 14.259 59.6762 15 61.25 15H67.5C74.4036 15 80 20.5964 80 27.5V57.5C80 64.4036 74.4036 70 67.5 70H12.5C5.59644 70 0 64.4036 0 57.5V27.5C0 20.5964 5.59644 15 12.5 15H18.75C20.3238 15 21.8057 14.259 22.75 13L25.75 9Z" fill="black"/>
</svg>
